<?xml version="1.0" standalone="no"?>
<!DOCTYPE svg PUBLIC "-//W3C//DTD SVG 20010904//EN"
 "http://www.w3.org/TR/2001/REC-SVG-20010904/DTD/svg10.dtd">
<svg version="1.0" xmlns="http://www.w3.org/2000/svg"
 width="430.000000pt" height="430.000000pt" viewBox="0 0 430.000000 430.000000"
 preserveAspectRatio="xMidYMid meet">
<metadata>
Created by potrace 1.11, written by Peter Selinger 2001-2013
</metadata>
<g transform="translate(0.000000,430.000000) scale(0.100000,-0.100000)"
fill="#000000" stroke="none">
<path d="M471 4254 c0 -11 3 -14 6 -6 3 7 2 16 -1 19 -3 4 -6 -2 -5 -13z"/>
<path d="M4010 4245 c-15 -16 -24 -40 -27 -72 -4 -44 -2 -50 30 -80 19 -18 40
-45 46 -62 11 -26 38 -48 47 -38 2 2 4 52 5 111 l1 106 -32 30 c-18 17 -35 30
-39 30 -4 0 -18 -11 -31 -25z"/>
<path d="M0 4184 c0 -25 4 -34 12 -30 7 3 21 9 31 12 21 8 23 24 2 24 -8 0
-15 7 -15 15 0 8 -7 15 -15 15 -11 0 -15 -11 -15 -36z"/>
<path d="M485 4210 c3 -5 12 -10 20 -10 8 0 17 5 20 10 4 6 -5 10 -20 10 -15
0 -24 -4 -20 -10z"/>
<path d="M600 4180 c0 -22 5 -40 10 -40 6 0 10 -18 10 -40 0 -33 -3 -40 -20
-40 -17 0 -20 7 -20 40 0 43 -6 48 -36 26 -18 -14 -18 -15 -1 -21 20 -8 23
-31 5 -38 -7 -3 -3 -6 10 -6 19 -1 22 -6 22 -41 0 -38 2 -40 30 -40 23 0 30 4
30 20 0 23 10 26 28 8 9 -9 15 -9 24 0 18 18 28 15 28 -8 0 -17 -7 -20 -40
-20 l-40 0 0 -40 c0 -36 -2 -40 -25 -40 -22 0 -25 -4 -25 -40 0 -31 -4 -40
-17 -40 -15 0 -15 -1 0 -18 24 -26 22 -62 -3 -62 -17 0 -20 7 -20 40 0 22 -4
40 -9 40 -5 0 -11 9 -14 20 -6 23 -39 39 -45 22 -4 -13 -82 -17 -82 -4 0 4 15
14 33 22 l32 13 -32 4 c-20 3 -33 10 -33 19 0 8 -5 14 -12 14 -6 0 -19 7 -29
16 -16 15 -19 14 -30 -4 -7 -11 -19 -17 -29 -15 -10 3 -21 0 -24 -6 -4 -5 -13
-8 -21 -4 -9 3 -15 -1 -15 -8 -1 -10 -4 -9 -10 3 -6 10 -18 14 -30 11 -11 -3
-17 -9 -14 -14 3 -5 -2 -9 -10 -9 -10 0 -13 6 -10 15 8 20 -24 20 -62 0 -16
-8 -40 -15 -54 -16 -23 -1 -22 -2 10 -16 24 -10 67 -15 133 -15 53 0 100 -4
103 -9 3 -5 17 -9 32 -9 62 0 72 -9 72 -61 0 -47 1 -49 29 -49 38 0 54 -21 46
-59 -5 -23 -15 -33 -43 -42 -42 -15 -54 -14 -96 7 -16 8 -38 12 -48 8 -11 -3
-18 0 -18 8 0 18 11 31 44 52 36 23 21 36 -41 36 -23 0 -53 4 -67 10 -14 5
-66 12 -116 16 l-90 7 0 -150 c0 -138 3 -161 35 -289 19 -76 35 -147 35 -157
0 -9 5 -26 10 -37 6 -11 14 -29 20 -40 14 -28 12 -66 -3 -82 -8 -7 -16 -19
-18 -26 -7 -21 -63 60 -70 103 -4 22 -7 -71 -8 -207 l-1 -248 33 0 c17 0 50
-7 72 -15 22 -8 55 -14 73 -15 18 0 46 -7 62 -15 36 -18 40 -55 11 -84 -11
-11 -17 -21 -15 -24 8 -8 84 15 84 25 0 14 42 -11 68 -41 16 -17 25 -22 28
-13 9 19 38 14 52 -9 11 -17 11 -27 2 -50 -14 -32 -21 -35 -51 -16 -17 10 -23
10 -26 0 -7 -20 -41 -15 -54 8 -8 15 -14 18 -22 10 -17 -17 -43 -13 -58 9 -14
20 -15 20 -48 -12 -32 -29 -32 -32 -15 -45 10 -7 25 -13 35 -13 9 0 30 -7 45
-15 16 -8 45 -15 65 -15 26 0 38 -5 41 -17 3 -10 52 -44 109 -75 57 -32 120
-72 139 -89 19 -17 47 -41 61 -53 15 -13 39 -41 54 -64 15 -23 31 -42 36 -42
16 0 23 63 19 190 -1 14 -3 79 -5 145 -4 113 -4 130 -5 173 0 9 -3 69 -7 134
-5 64 -6 173 -3 242 3 69 3 151 0 183 -3 32 -3 74 0 93 3 19 2 62 -2 95 -4 33
-7 164 -7 290 2 237 -5 290 -36 279 -8 -3 -15 -1 -15 5 0 6 -4 11 -10 11 -5 0
-10 -18 -10 -40 0 -22 -4 -40 -10 -40 -5 0 -10 -18 -10 -40 0 -22 -4 -40 -10
-40 -6 0 -10 33 -10 80 0 64 3 80 15 80 11 0 15 11 15 40 0 33 3 40 20 40 18
0 20 -4 14 -40 -6 -34 -4 -40 11 -40 15 0 17 6 11 40 -4 25 -2 40 4 40 13 0
13 26 -1 52 -9 17 -13 18 -20 7 -9 -13 -4 41 8 84 3 12 -1 17 -16 17 -18 0
-21 6 -21 39 0 22 5 42 13 44 6 3 -7 6 -30 6 -42 1 -43 2 -43 36 0 28 -4 35
-20 35 -17 0 -20 -7 -20 -40z m40 -370 c0 -5 -2 -10 -4 -10 -3 0 -8 5 -11 10
-3 6 -1 10 4 10 6 0 11 -4 11 -10z m-133 -76 c-3 -3 -12 -4 -19 -1 -8 3 -5 6
6 6 11 1 17 -2 13 -5z m62 -30 c-13 -16 -39 -19 -39 -4 0 6 7 10 15 10 8 0 15
5 15 11 0 5 5 7 10 4 8 -5 7 -11 -1 -21z m71 10 c0 -8 -5 -12 -10 -9 -6 4 -8
11 -5 16 9 14 15 11 15 -7z m-140 -64 c-6 -11 -13 -20 -15 -20 -3 0 -5 9 -5
20 0 11 7 20 15 20 13 0 14 -4 5 -20z m-202 -47 c-2 -10 -10 -18 -18 -18 -8 0
-16 8 -18 18 -2 12 3 17 18 17 15 0 20 -5 18 -17z m282 -9 c0 -8 -4 -14 -10
-14 -5 0 -10 -5 -10 -11 0 -7 18 -10 48 -8 48 3 92 -6 92 -20 0 -12 -53 -33
-59 -23 -10 15 -75 34 -79 22 -2 -5 -8 -8 -13 -4 -12 7 -12 44 1 44 6 0 10 9
10 21 0 11 5 17 10 14 6 -3 10 -13 10 -21z m85 -4 c3 -5 -1 -10 -9 -10 -9 0
-16 5 -16 10 0 6 4 10 9 10 6 0 13 -4 16 -10z m-185 -10 c0 -5 -4 -10 -10 -10
-5 0 -10 5 -10 10 0 6 5 10 10 10 6 0 10 -4 10 -10z m-240 -660 c0 -16 7 -20
36 -20 19 0 45 5 56 11 23 13 63 -3 73 -29 8 -23 -5 -29 -19 -9 -16 21 -35 22
-42 2 -4 -8 -14 -15 -23 -15 -9 0 -22 -5 -29 -12 -9 -9 -15 -9 -24 0 -7 7 -34
12 -60 12 -26 0 -48 2 -48 5 0 8 64 74 73 74 4 1 7 -8 7 -19z m357 -272 c19
-44 -2 -307 -25 -316 -32 -12 -42 27 -42 167 0 138 3 153 30 164 24 9 26 8 37
-15z m93 -93 c0 -20 -5 -25 -25 -25 -27 0 -33 18 -13 38 20 20 38 14 38 -13z"/>
<path d="M2489 4201 c-51 -12 -65 -21 -106 -68 -45 -52 -167 -173 -225 -224
-14 -13 -29 -34 -33 -47 l-6 -22 35 21 c20 11 36 24 36 28 0 15 84 54 153 72
57 14 84 16 141 9 39 -5 72 -13 74 -19 6 -18 38 -13 57 9 22 24 45 26 45 5 0
-13 11 -15 73 -10 52 5 90 2 137 -10 36 -9 76 -19 90 -22 14 -3 32 -11 40 -17
8 -7 34 -21 57 -31 66 -28 183 -160 183 -205 0 -11 8 -24 18 -27 27 -11 39
-26 47 -61 8 -39 1 -41 -19 -4 -13 23 -15 24 -16 7 0 -11 7 -33 15 -48 8 -15
12 -34 8 -42 -3 -9 0 -22 6 -29 8 -9 10 -28 5 -50 -4 -24 -2 -42 7 -52 9 -11
9 -18 2 -22 -7 -5 -8 -24 -2 -57 11 -71 11 -84 -1 -65 -16 26 -18 6 -9 -82 9
-80 8 -90 -10 -115 -21 -30 -38 -117 -24 -126 4 -3 8 -30 7 -61 -1 -54 0 -55
18 -34 10 12 18 26 18 31 0 6 16 33 35 61 33 48 45 86 65 201 12 71 12 205 0
205 -5 0 -10 7 -10 15 0 8 5 14 11 12 13 -2 13 125 -1 201 -19 109 -71 284
-96 324 -15 24 -42 66 -60 93 -56 88 -196 216 -260 239 -52 18 -156 29 -173
18 -8 -6 -30 -6 -55 0 -65 15 -212 14 -277 -1z m224 -138 c-7 -3 -13 -11 -13
-19 0 -8 6 -11 15 -8 17 7 21 -11 5 -21 -15 -9 -80 -14 -80 -7 1 20 70 75 80
64 3 -2 -1 -7 -7 -9z m652 -723 c3 -6 -1 -7 -9 -4 -18 7 -21 14 -7 14 6 0 13
-4 16 -10z"/>
<path d="M160 4100 c0 -5 5 -10 10 -10 6 0 10 5 10 10 0 6 -4 10 -10 10 -5 0
-10 -4 -10 -10z"/>
<path d="M1 3988 c-1 -75 2 -77 41 -19 l23 35 -28 28 c-16 15 -30 28 -32 28
-2 0 -3 -32 -4 -72z"/>
<path d="M2048 3768 c-48 -65 -107 -201 -117 -270 -5 -37 -12 -71 -15 -76 -3
-4 -6 -86 -7 -180 -2 -95 -6 -172 -10 -172 -5 0 -13 8 -18 18 -9 15 -10 14
-11 -8 0 -14 11 -42 24 -64 l23 -38 12 45 c6 25 11 59 11 76 0 16 4 32 9 35 5
3 12 35 16 71 4 45 11 65 20 65 9 0 12 -6 9 -15 -4 -9 0 -15 10 -15 20 0 20
19 0 48 -14 20 -14 29 5 105 17 68 25 152 21 227 -3 52 10 111 31 139 12 17
20 33 17 36 -3 3 -16 -9 -30 -27z"/>
<path d="M3260 3310 c0 -5 5 -10 11 -10 5 0 7 5 4 10 -3 6 -8 10 -11 10 -2 0
-4 -4 -4 -10z"/>
<path d="M2115 3225 c-17 -9 -36 -24 -43 -35 -12 -19 -10 -20 64 -20 61 0 79
4 90 18 16 21 17 32 3 32 -5 0 -8 -4 -4 -9 3 -5 1 -12 -5 -16 -5 -3 -10 3 -10
13 0 34 -45 41 -95 17z"/>
<path d="M2838 3150 c-21 -17 -22 -20 -7 -35 21 -21 76 -22 97 -2 13 14 14 19
3 29 -11 10 -14 10 -18 1 -6 -17 -23 -16 -23 1 0 23 -28 26 -52 6z"/>
<path d="M1025 3140 c3 -5 10 -10 16 -10 5 0 9 5 9 10 0 6 -7 10 -16 10 -8 0
-12 -4 -9 -10z"/>
<path d="M3002 3088 c3 -7 14 -14 26 -16 16 -3 20 1 16 12 -7 19 -48 22 -42 4z"/>
<path d="M2328 2813 c-10 -2 -18 -9 -18 -15 0 -6 9 -8 20 -5 13 3 31 -3 48
-17 15 -13 38 -29 50 -35 l24 -13 -24 34 c-39 55 -54 63 -100 51z"/>
<path d="M2545 2770 c-23 -25 -15 -33 19 -20 15 5 40 10 56 10 22 0 28 4 24
15 -9 23 -77 20 -99 -5z"/>
<path d="M3235 2665 c-21 -45 -22 -46 -24 -77 0 -12 -4 -18 -8 -15 -10 11 -31
-37 -21 -49 5 -8 1 -13 -12 -17 -11 -3 -23 -13 -26 -24 -4 -10 -18 -30 -32
-45 -13 -14 -21 -31 -18 -37 4 -5 -7 -39 -24 -74 -16 -35 -30 -71 -30 -79 0
-14 -71 -116 -89 -127 -4 -4 -13 -16 -20 -29 -10 -18 -9 -25 4 -39 9 -9 21
-27 26 -41 8 -20 12 -22 24 -12 8 7 15 19 15 26 0 7 9 42 19 76 11 35 34 107
50 160 17 54 44 116 61 139 16 23 30 48 30 56 0 7 8 21 18 31 21 21 67 111 68
132 0 8 4 23 8 32 4 9 6 25 4 35 -2 13 -9 7 -23 -22z"/>
<path d="M2150 2607 c0 -19 73 -87 93 -87 10 0 17 8 17 20 0 20 22 26 74 20
33 -3 11 25 -25 31 -19 3 -47 11 -62 18 -39 15 -97 14 -97 -2z"/>
<path d="M2660 2560 c-41 -4 -58 -7 -37 -8 20 -1 37 -7 37 -13 0 -5 4 -8 10
-4 12 8 50 -16 50 -32 0 -18 33 -16 74 5 41 20 44 29 14 41 -41 15 -72 17
-148 11z"/>
<path d="M27 2554 c-13 -14 -7 -59 13 -92 20 -33 43 -35 38 -4 -2 13 5 17 27
17 21 0 29 -4 27 -14 -14 -64 -14 -69 5 -79 11 -6 25 -7 33 -2 11 7 11 14 1
39 -12 27 -11 33 8 57 11 14 18 30 16 34 -6 10 -58 27 -100 33 -16 3 -37 8
-46 11 -8 4 -18 3 -22 0z"/>
<path d="M1986 2353 c-4 -11 -7 -52 -8 -89 -2 -86 15 -125 102 -231 81 -98
337 -352 368 -364 15 -6 31 -3 54 9 42 24 45 39 12 54 -22 10 -28 10 -32 0 -7
-23 -22 -12 -16 13 5 21 1 26 -22 35 -16 5 -37 15 -47 20 -10 6 -22 8 -28 4
-5 -3 -16 -1 -23 5 -8 7 -18 10 -24 9 -10 -3 -12 1 -12 25 0 11 13 11 72 1 73
-12 174 -8 184 7 10 16 -47 29 -129 29 -48 0 -101 7 -126 16 -24 8 -50 13 -58
10 -7 -3 -13 1 -13 9 0 8 -6 12 -13 9 -28 -10 -146 191 -188 321 -12 39 -27
83 -34 100 -11 28 -13 29 -19 8z m284 -479 c0 -8 -5 -12 -10 -9 -6 4 -8 11 -5
16 9 14 15 11 15 -7z"/>
<path d="M0 2112 l0 -219 38 -11 c20 -6 63 -27 96 -47 32 -19 62 -35 67 -35
12 0 11 47 -1 55 -5 3 -10 15 -10 26 0 10 -5 19 -10 19 -6 0 -12 6 -15 13 -26
80 -90 245 -101 261 -8 11 -14 35 -14 53 0 27 -34 103 -46 103 -2 0 -4 -98 -4
-218z"/>
<path d="M96 2283 c12 -53 62 -198 86 -253 14 -31 28 -72 32 -93 4 -20 11 -37
16 -37 6 0 10 -10 10 -23 0 -12 9 -39 20 -60 11 -20 20 -50 20 -66 0 -20 18
-50 60 -102 41 -50 59 -80 56 -93 -4 -14 6 -9 32 17 20 20 60 45 87 57 28 12
73 32 100 45 85 40 122 55 138 55 8 0 25 8 36 18 20 16 21 23 15 85 -7 66 -7
67 -36 67 -29 0 -32 3 -42 52 -9 42 -181 171 -308 231 -31 15 -60 27 -64 27
-4 0 -38 16 -75 35 -73 38 -144 65 -172 65 -14 0 -16 -5 -11 -27z"/>
<path d="M2910 2036 c0 -8 5 -18 10 -21 6 -3 10 1 10 9 0 8 -4 18 -10 21 -5 3
-10 -1 -10 -9z"/>
<path d="M2961 1934 c0 -11 3 -14 6 -6 3 7 2 16 -1 19 -3 4 -6 -2 -5 -13z"/>
<path d="M0 1408 l0 -431 25 23 c13 12 44 64 69 115 60 125 148 265 196 314
22 22 40 45 40 51 0 5 5 10 10 10 6 0 10 5 10 11 0 6 -7 9 -14 6 -10 -4 -13
-1 -9 9 3 8 -1 14 -9 14 -9 0 -21 22 -31 58 -19 69 -55 112 -147 175 -62 42
-123 77 -135 77 -3 0 -5 -194 -5 -432z"/>
<path d="M2480 1770 c0 -12 48 -25 58 -16 8 9 -18 26 -40 26 -10 0 -18 -4 -18
-10z"/>
<path d="M2498 1643 c7 -3 16 -2 19 1 4 3 -2 6 -13 5 -11 0 -14 -3 -6 -6z"/>
<path d="M2395 1587 c-39 -34 -39 -35 -25 -62 22 -41 17 -145 -9 -200 -12 -25
-21 -49 -21 -55 0 -6 -11 -27 -25 -48 -13 -21 -29 -62 -35 -91 -5 -29 -14 -70
-20 -90 -14 -54 -39 -268 -50 -421 -5 -74 -11 -157 -14 -185 -3 -27 -10 -130
-16 -227 -6 -98 -13 -185 -16 -193 -5 -13 22 -15 215 -15 l221 0 1 63 c5 215
-12 1029 -21 1062 -5 17 -14 48 -19 71 -6 22 -20 51 -31 64 -11 13 -20 29 -20
37 0 24 27 77 54 105 14 15 26 32 26 37 0 6 9 15 21 21 48 26 -20 122 -100
139 -25 5 -53 12 -62 16 -9 3 -30 -8 -54 -28z"/>
<path d="M4151 1514 c0 -11 3 -14 6 -6 3 7 2 16 -1 19 -3 4 -6 -2 -5 -13z"/>
<path d="M4151 1395 c0 -42 2 -55 9 -44 6 10 6 34 1 60 l-9 44 -1 -60z"/>
<path d="M4160 1250 c0 -5 5 -10 10 -10 6 0 10 5 10 10 0 6 -4 10 -10 10 -5 0
-10 -4 -10 -10z"/>
<path d="M4198 1233 c7 -3 16 -2 19 1 4 3 -2 6 -13 5 -11 0 -14 -3 -6 -6z"/>
<path d="M4147 1202 c-5 -20 0 -32 15 -45 26 -22 37 -13 14 12 -13 14 -14 20
-4 23 10 4 9 8 -3 21 -16 15 -17 14 -22 -11z"/>
<path d="M4217 1153 c-4 -20 3 -35 31 -65 42 -46 52 -47 52 -8 0 23 -5 30 -19
30 -29 0 -51 11 -51 25 0 7 8 12 17 11 10 0 19 7 21 17 3 12 -3 17 -21 17 -19
0 -26 -6 -30 -27z"/>
</g>
</svg>
